<svg width="590" height="425" viewBox="0 0 590 425" fill="none" xmlns="http://www.w3.org/2000/svg">
<g filter="url(#filter0_d_5_61)">
<path d="M20 261.887H550.029C558.59 261.887 565.529 268.827 565.529 277.387V359.946C565.529 368.506 558.59 375.445 550.029 375.446H20C11.4396 375.446 4.50006 368.506 4.5 359.946V277.387C4.5 268.827 11.4396 261.887 20 261.887Z" fill="black" stroke="#F2F2F2"/>
<path d="M4 277.387C4 268.55 11.1634 261.387 20 261.387H550.029C558.866 261.387 566.029 268.55 566.029 277.387V359.945C566.029 368.782 558.866 375.945 550.029 375.945H20C11.1634 375.945 4 368.782 4 359.945V277.387Z" fill="#2B2A2A"/>
<rect x="160.026" y="304.951" width="374.966" height="27.4295" fill="white"/>
<ellipse cx="71.1079" cy="318.263" rx="21.8101" ry="21.3789" fill="#34C759"/>
<path d="M4 146.693C4 137.857 11.1634 130.693 20 130.693H550.029C558.866 130.693 566.029 137.857 566.029 146.693V229.252C566.029 238.089 558.866 245.252 550.029 245.252H20C11.1634 245.252 4 238.089 4 229.252V146.693Z" fill="#2B2A2A"/>
<rect x="160.026" y="174.258" width="374.966" height="27.4295" fill="white"/>
<ellipse cx="71.1079" cy="187.569" rx="21.8101" ry="21.3789" fill="#FFD119"/>
<path d="M4 16C4 7.16343 11.1634 0 20 0H550.029C558.866 0 566.029 7.16344 566.029 16V98.5585C566.029 107.395 558.866 114.558 550.029 114.558H20C11.1634 114.558 4 107.395 4 98.5585V16Z" fill="#2B2A2A"/>
<rect x="160.026" y="43.5645" width="374.966" height="27.4295" fill="white"/>
<ellipse cx="71.1079" cy="56.8758" rx="21.8101" ry="21.3789" fill="#FF3B30"/>
</g>
<g filter="url(#filter1_d_5_61)">
<path d="M113 274C113 265.163 120.163 258 129 258H569.583C578.42 258 585.583 265.163 585.583 274V400.134C585.583 408.97 578.42 416.134 569.583 416.134H129C120.163 416.134 113 408.97 113 400.134V274Z" fill="#F2F2F7"/>
<path d="M127.541 293.374C127.541 288.561 132.422 284.658 138.443 284.658H559.535C565.556 284.658 570.437 288.561 570.437 293.374V394.694C570.437 399.508 565.556 403.41 559.535 403.41H138.443C132.422 403.41 127.541 399.508 127.541 394.694V293.374Z" fill="#212121"/>
<rect x="311.727" y="350.699" width="85.4286" height="33.9291" rx="5" fill="#D9D9D9"/>
<rect x="317.786" y="373.491" width="7.03959" height="30.9067" rx="3.5198" transform="rotate(-90 317.786 373.491)" fill="#212121"/>
<rect x="389.892" y="366.452" width="7.03959" height="30.9067" rx="3.5198" transform="rotate(90 389.892 366.452)" fill="#212121"/>
<rect x="311.727" y="307.076" width="85.4286" height="16.3587" rx="5" fill="#848484"/>
<rect x="311.727" y="304.046" width="85.4286" height="16.3587" rx="5" fill="#848484"/>
<rect x="311.727" y="328.887" width="85.4286" height="16.3587" rx="5" fill="#848484"/>
<rect x="311.727" y="325.858" width="85.4286" height="16.3587" rx="5" fill="#848484"/>
<path d="M311.727 394.899C311.727 393.242 313.071 391.899 314.727 391.899H394.156C395.813 391.899 397.156 393.242 397.156 394.899V402.804H311.727V394.899Z" fill="#848484"/>
<path d="M397.156 293.17C397.156 294.827 395.813 296.17 394.156 296.17H314.727C313.071 296.17 311.727 294.827 311.727 293.17V285.264H397.156V293.17Z" fill="#848484"/>
<rect x="497.731" y="350.699" width="41.8055" height="44.229" rx="5" fill="#D9D9D9"/>
<circle cx="518.634" cy="372.814" r="16.6616" fill="#FF3B30"/>
<rect x="452.291" y="350.699" width="41.8055" height="44.229" rx="5" fill="#D9D9D9"/>
<circle cx="473.193" cy="372.814" r="16.6616" fill="#FF3B30"/>
<path d="M200.015 301.017C202.224 301.017 204.015 302.808 204.015 305.017V332.583H231.387C233.596 332.583 235.387 334.374 235.387 336.583V351.679C235.387 353.888 233.596 355.679 231.387 355.679H204.015V383.051C204.015 385.26 202.224 387.051 200.015 387.051H184.918C182.709 387.051 180.918 385.261 180.918 383.051V355.679H153.353C151.144 355.679 149.353 353.888 149.353 351.679V336.583C149.353 334.374 151.143 332.583 153.353 332.583H180.918V305.017C180.918 302.808 182.709 301.017 184.918 301.017H200.015Z" fill="#141414"/>
<path d="M200.015 301.017L200.015 298.517H200.015V301.017ZM204.015 332.583H201.515V335.083H204.015V332.583ZM231.387 332.583V335.083V332.583ZM235.387 336.583H237.887H235.387ZM235.387 351.679L237.887 351.68V351.679H235.387ZM231.387 355.679V358.179V355.679ZM204.015 355.679V353.179H201.515V355.679H204.015ZM200.015 387.051V389.551H200.015L200.015 387.051ZM180.918 355.679H183.418V353.179H180.918V355.679ZM153.353 355.679V353.179V355.679ZM149.353 351.679H146.853V351.68L149.353 351.679ZM149.353 336.583H151.853H149.353ZM153.353 332.583V330.083V332.583ZM180.918 332.583V335.083H183.418V332.583H180.918ZM200.015 301.017L200.014 303.517C200.843 303.517 201.515 304.189 201.515 305.017H204.015H206.515C206.515 301.427 203.604 298.518 200.015 298.517L200.015 301.017ZM204.015 305.017H201.515V332.583H204.015H206.515V305.017H204.015ZM204.015 332.583V335.083H231.387V332.583V330.083H204.015V332.583ZM231.387 332.583V335.083C232.215 335.083 232.887 335.754 232.887 336.583H235.387H237.887C237.887 332.993 234.977 330.083 231.387 330.083V332.583ZM235.387 336.583H232.887V351.679H235.387H237.887V336.583H235.387ZM235.387 351.679L232.887 351.679C232.887 352.508 232.215 353.179 231.387 353.179V355.679V358.179C234.977 358.179 237.886 355.269 237.887 351.68L235.387 351.679ZM231.387 355.679V353.179H204.015V355.679V358.179H231.387V355.679ZM204.015 355.679H201.515V383.051H204.015H206.515V355.679H204.015ZM204.015 383.051H201.515C201.515 383.879 200.843 384.551 200.014 384.551L200.015 387.051L200.015 389.551C203.604 389.551 206.515 386.641 206.515 383.051H204.015ZM200.015 387.051V384.551H184.918V387.051V389.551H200.015V387.051ZM184.918 387.051V384.551C184.09 384.551 183.418 383.88 183.418 383.051H180.918H178.418C178.418 386.641 181.328 389.551 184.918 389.551V387.051ZM180.918 383.051H183.418V355.679H180.918H178.418V383.051H180.918ZM180.918 355.679V353.179H153.353V355.679V358.179H180.918V355.679ZM153.353 355.679V353.179C152.525 353.179 151.853 352.508 151.853 351.679L149.353 351.679L146.853 351.68C146.853 355.269 149.763 358.179 153.353 358.179V355.679ZM149.353 351.679H151.853V336.583H149.353H146.853V351.679H149.353ZM149.353 336.583H151.853C151.853 335.754 152.524 335.083 153.353 335.083V332.583V330.083C149.763 330.083 146.853 332.993 146.853 336.583H149.353ZM153.353 332.583V335.083H180.918V332.583V330.083H153.353V332.583ZM180.918 332.583H183.418V305.017H180.918H178.418V332.583H180.918ZM180.918 305.017H183.418C183.418 304.189 184.09 303.517 184.918 303.517V301.017V298.517C181.328 298.517 178.418 301.427 178.418 305.017H180.918ZM184.918 301.017V303.517H200.015V301.017V298.517H184.918V301.017Z" fill="white"/>
<circle cx="192.466" cy="344.131" r="6.73647" fill="#262626"/>
<ellipse cx="192.274" cy="312.565" rx="6.73647" ry="6.73648" fill="#262626"/>
<ellipse cx="192.274" cy="375.696" rx="6.73647" ry="6.73647" fill="#262626"/>
<ellipse cx="223.454" cy="344.131" rx="6.73648" ry="6.73647" fill="#262626"/>
<ellipse cx="161.478" cy="344.131" rx="6.73648" ry="6.73647" fill="#262626"/>
</g>
<defs>
<filter id="filter0_d_5_61" x="0" y="0" width="570.029" height="383.945" filterUnits="userSpaceOnUse" color-interpolation-filters="sRGB">
<feFlood flood-opacity="0" result="BackgroundImageFix"/>
<feColorMatrix in="SourceAlpha" type="matrix" values="0 0 0 0 0 0 0 0 0 0 0 0 0 0 0 0 0 0 127 0" result="hardAlpha"/>
<feOffset dy="4"/>
<feGaussianBlur stdDeviation="2"/>
<feComposite in2="hardAlpha" operator="out"/>
<feColorMatrix type="matrix" values="0 0 0 0 0 0 0 0 0 0 0 0 0 0 0 0 0 0 0.25 0"/>
<feBlend mode="normal" in2="BackgroundImageFix" result="effect1_dropShadow_5_61"/>
<feBlend mode="normal" in="SourceGraphic" in2="effect1_dropShadow_5_61" result="shape"/>
</filter>
<filter id="filter1_d_5_61" x="109" y="258" width="480.583" height="166.134" filterUnits="userSpaceOnUse" color-interpolation-filters="sRGB">
<feFlood flood-opacity="0" result="BackgroundImageFix"/>
<feColorMatrix in="SourceAlpha" type="matrix" values="0 0 0 0 0 0 0 0 0 0 0 0 0 0 0 0 0 0 127 0" result="hardAlpha"/>
<feOffset dy="4"/>
<feGaussianBlur stdDeviation="2"/>
<feComposite in2="hardAlpha" operator="out"/>
<feColorMatrix type="matrix" values="0 0 0 0 0 0 0 0 0 0 0 0 0 0 0 0 0 0 0.25 0"/>
<feBlend mode="normal" in2="BackgroundImageFix" result="effect1_dropShadow_5_61"/>
<feBlend mode="normal" in="SourceGraphic" in2="effect1_dropShadow_5_61" result="shape"/>
</filter>
</defs>
</svg>
