<svg width="709" height="377" viewBox="0 0 709 377" fill="none" xmlns="http://www.w3.org/2000/svg">
<g filter="url(#filter0_d_5_61)">
<path d="M20 222.294H464.896C473.457 222.294 480.397 229.234 480.397 237.794V303C480.397 311.56 473.458 318.5 464.897 318.5H20C11.4396 318.5 4.50002 311.56 4.5 303V237.794C4.5 229.234 11.4396 222.294 20 222.294Z" fill="black" stroke="#F2F2F2"/>
<path d="M4 237.794C4 228.957 11.1634 221.794 20 221.794H464.897C473.734 221.794 480.897 228.957 480.897 237.794V303C480.897 311.837 473.734 319 464.897 319H20C11.1635 319 4 311.837 4 303V237.794Z" fill="#2B2A2A"/>
<rect x="136.392" y="258.76" width="318.169" height="23.2747" fill="white"/>
<ellipse cx="60.9429" cy="270.055" rx="18.5064" ry="18.1406" fill="#34C759"/>
<path d="M4 126.897C4 118.06 11.1634 110.897 20 110.897H464.897C473.734 110.897 480.897 118.06 480.897 126.897V192.103C480.897 200.94 473.734 208.103 464.897 208.103H20C11.1635 208.103 4 200.94 4 192.103V126.897Z" fill="#2B2A2A"/>
<rect x="136.392" y="147.863" width="318.169" height="23.2747" fill="white"/>
<ellipse cx="60.9429" cy="159.158" rx="18.5064" ry="18.1406" fill="#FFD119"/>
<path d="M4 16C4 7.16344 11.1634 0 20 0H464.897C473.734 0 480.897 7.16344 480.897 16V81.206C480.897 90.0426 473.734 97.206 464.897 97.206H20C11.1635 97.206 4 90.0426 4 81.206V16Z" fill="#2B2A2A"/>
<rect x="136.392" y="36.9657" width="318.169" height="23.2747" fill="white"/>
<ellipse cx="60.9429" cy="48.2607" rx="18.5064" ry="18.1406" fill="#FF3B30"/>
</g>
<g filter="url(#filter1_d_5_61)">
<path d="M304 250C304 241.163 311.163 234 320 234H689C697.837 234 705 241.163 705 250V352.181C705 361.017 697.837 368.181 689 368.181H320C311.163 368.181 304 361.017 304 352.181V250Z" fill="#F2F2F7"/>
<path d="M316.338 264.016C316.338 259.932 320.48 256.62 325.589 256.62H682.897C688.006 256.62 692.147 259.932 692.147 264.016V349.989C692.147 354.073 688.006 357.385 682.897 357.385H325.589C320.48 357.385 316.338 354.073 316.338 349.989V264.016Z" fill="#212121"/>
<rect x="472.626" y="312.658" width="72.4885" height="28.7897" rx="5" fill="#D9D9D9"/>
<rect x="477.767" y="331.998" width="5.97329" height="26.2252" rx="2.98664" transform="rotate(-90 477.767 331.998)" fill="#212121"/>
<rect x="538.951" y="326.024" width="5.97329" height="26.2252" rx="2.98664" transform="rotate(90 538.951 326.024)" fill="#212121"/>
<rect x="472.626" y="275.642" width="72.4885" height="13.8808" rx="5" fill="#848484"/>
<rect x="472.626" y="273.072" width="72.4885" height="13.8808" rx="5" fill="#848484"/>
<rect x="472.626" y="294.15" width="72.4885" height="13.8808" rx="5" fill="#848484"/>
<rect x="472.626" y="291.579" width="72.4885" height="13.8808" rx="5" fill="#848484"/>
<path d="M472.626 350.617C472.626 348.96 473.969 347.617 475.626 347.617H542.114C543.771 347.617 545.114 348.96 545.114 350.617V356.871H472.626V350.617Z" fill="#848484"/>
<path d="M545.114 263.388C545.114 265.045 543.771 266.388 542.114 266.388H475.626C473.969 266.388 472.626 265.045 472.626 263.388V257.135H545.114V263.388Z" fill="#848484"/>
<rect x="630.455" y="312.658" width="35.4731" height="37.5295" rx="5" fill="#D9D9D9"/>
<circle cx="648.192" cy="331.422" r="14.1378" fill="#FF3B30"/>
<rect x="591.897" y="312.658" width="35.4731" height="37.5295" rx="5" fill="#D9D9D9"/>
<circle cx="609.634" cy="331.422" r="14.1378" fill="#FF3B30"/>
<path d="M377.228 270.501C379.437 270.501 381.228 272.292 381.228 274.501V297.286H403.849C406.058 297.286 407.849 299.077 407.849 301.286V312.883C407.849 315.092 406.058 316.883 403.849 316.883H381.228V339.504C381.228 341.713 379.437 343.504 377.228 343.504H365.63C363.421 343.504 361.631 341.713 361.63 339.504V316.883H338.846C336.637 316.883 334.846 315.092 334.846 312.883V301.286C334.846 299.076 336.637 297.286 338.846 297.286H361.63V274.501C361.63 272.292 363.421 270.501 365.63 270.501H377.228Z" fill="#141414"/>
<path d="M381.228 274.501L383.728 274.501V274.501L381.228 274.501ZM381.228 297.286H378.728V299.786H381.228V297.286ZM403.849 297.286L403.849 294.786H403.849V297.286ZM407.849 301.286L410.349 301.286V301.286L407.849 301.286ZM407.849 312.883L405.349 312.883V312.883L407.849 312.883ZM403.849 316.883L403.849 319.383L403.849 319.383L403.849 316.883ZM381.228 316.883V314.383H378.728V316.883H381.228ZM381.228 339.504L383.728 339.505V339.504H381.228ZM361.63 339.504L359.13 339.504L359.13 339.504L361.63 339.504ZM361.63 316.883H364.13V314.383H361.63V316.883ZM338.846 316.883L338.846 319.383H338.846V316.883ZM334.846 312.883L332.346 312.883V312.883L334.846 312.883ZM334.846 301.286L337.346 301.286V301.286L334.846 301.286ZM338.846 297.286L338.846 294.786H338.846L338.846 297.286ZM361.63 297.286V299.786H364.13V297.286H361.63ZM361.63 274.501L359.13 274.501V274.501H361.63ZM377.228 270.501V273.001C378.056 273.001 378.728 273.673 378.728 274.501L381.228 274.501L383.728 274.501C383.728 270.911 380.818 268.001 377.228 268.001V270.501ZM381.228 274.501H378.728V297.286H381.228H383.728V274.501H381.228ZM381.228 297.286V299.786H403.849V297.286V294.786H381.228V297.286ZM403.849 297.286L403.849 299.786C404.678 299.786 405.349 300.457 405.349 301.286L407.849 301.286L410.349 301.286C410.349 297.696 407.439 294.786 403.849 294.786L403.849 297.286ZM407.849 301.286H405.349V312.883H407.849H410.349V301.286H407.849ZM407.849 312.883L405.349 312.883C405.349 313.711 404.678 314.383 403.849 314.383L403.849 316.883L403.849 319.383C407.439 319.383 410.349 316.473 410.349 312.883L407.849 312.883ZM403.849 316.883V314.383H381.228V316.883V319.383H403.849V316.883ZM381.228 316.883H378.728V339.504H381.228H383.728V316.883H381.228ZM381.228 339.504L378.728 339.504C378.728 340.333 378.056 341.004 377.228 341.004V343.504V346.004C380.818 346.004 383.728 343.094 383.728 339.505L381.228 339.504ZM377.228 343.504V341.004H365.63V343.504V346.004H377.228V343.504ZM365.63 343.504V341.004C364.802 341.004 364.13 340.333 364.13 339.504L361.63 339.504L359.13 339.504C359.131 343.094 362.04 346.004 365.63 346.004V343.504ZM361.63 339.504H364.13V316.883H361.63H359.13V339.504H361.63ZM361.63 316.883V314.383H338.846V316.883V319.383H361.63V316.883ZM338.846 316.883L338.846 314.383C338.018 314.383 337.346 313.712 337.346 312.883L334.846 312.883L332.346 312.883C332.346 316.473 335.256 319.383 338.846 319.383L338.846 316.883ZM334.846 312.883H337.346V301.286H334.846H332.346V312.883H334.846ZM334.846 301.286L337.346 301.286C337.346 300.457 338.018 299.786 338.846 299.786L338.846 297.286L338.846 294.786C335.256 294.786 332.346 297.696 332.346 301.286L334.846 301.286ZM338.846 297.286V299.786H361.63V297.286V294.786H338.846V297.286ZM361.63 297.286H364.13V274.501H361.63H359.13V297.286H361.63ZM361.63 274.501L364.13 274.501C364.13 273.673 364.802 273.001 365.63 273.001V270.501V268.001C362.04 268.001 359.13 270.911 359.13 274.501L361.63 274.501ZM365.63 270.501V273.001H377.228V270.501V268.001H365.63V270.501Z" fill="white"/>
<circle cx="371.429" cy="307.084" r="5.71608" fill="#262626"/>
<circle cx="371.266" cy="280.3" r="5.71608" fill="#262626"/>
<ellipse cx="371.266" cy="333.868" rx="5.71608" ry="5.71608" fill="#262626"/>
<ellipse cx="397.723" cy="307.084" rx="5.71609" ry="5.71608" fill="#262626"/>
<ellipse cx="345.135" cy="307.084" rx="5.71608" ry="5.71608" fill="#262626"/>
</g>
<defs>
<filter id="filter0_d_5_61" x="0" y="0" width="484.897" height="327" filterUnits="userSpaceOnUse" color-interpolation-filters="sRGB">
<feFlood flood-opacity="0" result="BackgroundImageFix"/>
<feColorMatrix in="SourceAlpha" type="matrix" values="0 0 0 0 0 0 0 0 0 0 0 0 0 0 0 0 0 0 127 0" result="hardAlpha"/>
<feOffset dy="4"/>
<feGaussianBlur stdDeviation="2"/>
<feComposite in2="hardAlpha" operator="out"/>
<feColorMatrix type="matrix" values="0 0 0 0 0 0 0 0 0 0 0 0 0 0 0 0 0 0 0.25 0"/>
<feBlend mode="normal" in2="BackgroundImageFix" result="effect1_dropShadow_5_61"/>
<feBlend mode="normal" in="SourceGraphic" in2="effect1_dropShadow_5_61" result="shape"/>
</filter>
<filter id="filter1_d_5_61" x="300" y="234" width="409" height="142.181" filterUnits="userSpaceOnUse" color-interpolation-filters="sRGB">
<feFlood flood-opacity="0" result="BackgroundImageFix"/>
<feColorMatrix in="SourceAlpha" type="matrix" values="0 0 0 0 0 0 0 0 0 0 0 0 0 0 0 0 0 0 127 0" result="hardAlpha"/>
<feOffset dy="4"/>
<feGaussianBlur stdDeviation="2"/>
<feComposite in2="hardAlpha" operator="out"/>
<feColorMatrix type="matrix" values="0 0 0 0 0 0 0 0 0 0 0 0 0 0 0 0 0 0 0.25 0"/>
<feBlend mode="normal" in2="BackgroundImageFix" result="effect1_dropShadow_5_61"/>
<feBlend mode="normal" in="SourceGraphic" in2="effect1_dropShadow_5_61" result="shape"/>
</filter>
</defs>
</svg>
