<svg width="572" height="197" viewBox="0 0 572 197" fill="none" xmlns="http://www.w3.org/2000/svg">
<g filter="url(#filter0_d_3_108)">
<path d="M4 16C4 7.16343 11.1634 0 20 0H551.118C559.955 0 567.118 7.16345 567.118 16V172.428C567.118 181.265 559.955 188.428 551.118 188.428H20C11.1634 188.428 4 181.265 4 172.428V16Z" fill="#F2F2F7"/>
<path d="M21.3267 42.1511C21.3267 36.4153 27.1428 31.7656 34.3173 31.7656H536.079C543.254 31.7656 549.07 36.4153 549.07 42.1511V162.882C549.07 168.617 543.254 173.267 536.079 173.267H34.3173C27.1428 173.267 21.3267 168.617 21.3267 162.882V42.1511Z" fill="#212121"/>
<rect x="240.799" y="110.458" width="101.794" height="40.429" rx="5" fill="#D9D9D9"/>
<rect x="248.018" y="137.617" width="8.3882" height="36.8277" rx="4.1941" transform="rotate(-90 248.018 137.617)" fill="#212121"/>
<rect x="333.938" y="129.229" width="8.3882" height="36.8277" rx="4.1941" transform="rotate(90 333.938 129.229)" fill="#212121"/>
<rect x="240.799" y="58.4777" width="101.794" height="19.4926" rx="5" fill="#848484"/>
<rect x="240.799" y="54.8678" width="101.794" height="19.4926" rx="5" fill="#848484"/>
<rect x="240.799" y="84.4677" width="101.794" height="19.4926" rx="5" fill="#848484"/>
<rect x="240.799" y="80.8579" width="101.794" height="19.4926" rx="5" fill="#848484"/>
<path d="M240.799 162.55C240.799 160.893 242.142 159.55 243.799 159.55H339.593C341.25 159.55 342.593 160.893 342.593 162.55V172.545H240.799V162.55Z" fill="#848484"/>
<path d="M342.593 42.4825C342.593 44.1394 341.25 45.4825 339.593 45.4825H243.799C242.142 45.4825 240.799 44.1394 240.799 42.4825V32.4875H342.593V42.4825Z" fill="#848484"/>
<rect x="462.436" y="110.458" width="49.8143" height="52.7021" rx="5" fill="#D9D9D9"/>
<circle cx="487.343" cy="136.809" r="19.8535" fill="#FF3B30"/>
<rect x="408.29" y="110.458" width="49.8143" height="52.7021" rx="5" fill="#D9D9D9"/>
<circle cx="433.197" cy="136.809" r="19.8535" fill="#FF3B30"/>
<path d="M108.451 51.2583C110.66 51.2585 112.451 53.0493 112.451 55.2583V88.8706H145.833C148.042 88.8707 149.833 90.6615 149.833 92.8706V112.392C149.833 114.601 148.042 116.392 145.833 116.392H112.451V149.775C112.45 151.984 110.66 153.775 108.451 153.775H88.9291C86.72 153.775 84.9292 151.984 84.9291 149.775V116.392H51.3168C49.1078 116.392 47.317 114.601 47.3168 112.392V92.8706C47.3168 90.6615 49.1077 88.8706 51.3168 88.8706H84.9291V55.2583C84.9291 53.0492 86.72 51.2583 88.9291 51.2583H108.451Z" fill="#141414"/>
<path d="M108.451 51.2583L108.451 48.7583H108.451V51.2583ZM112.451 88.8706H109.951V91.3706H112.451V88.8706ZM145.833 88.8706L145.834 86.3706H145.833V88.8706ZM149.833 92.8706H152.333V92.8706H149.833ZM149.833 112.392L152.333 112.392V112.392H149.833ZM145.833 116.392V118.892H145.834L145.833 116.392ZM112.451 116.392V113.892H109.951V116.392H112.451ZM112.451 149.775L114.951 149.775V149.775H112.451ZM108.451 153.775V156.275H108.451L108.451 153.775ZM84.9291 149.775H82.4291V149.775L84.9291 149.775ZM84.9291 116.392H87.4291V113.892H84.9291V116.392ZM51.3168 116.392L51.3168 118.892H51.3168V116.392ZM47.3168 112.392H44.8168V112.392L47.3168 112.392ZM47.3168 92.8706H49.8168V92.8706H47.3168ZM51.3168 88.8706V86.3706V86.3706V88.8706ZM84.9291 88.8706V91.3706H87.4291V88.8706H84.9291ZM84.9291 55.2583L82.4291 55.2583V55.2583H84.9291ZM108.451 51.2583L108.45 53.7583C109.279 53.7584 109.951 54.4302 109.951 55.2583H112.451H114.951C114.951 51.6684 112.04 48.7586 108.451 48.7583L108.451 51.2583ZM112.451 55.2583H109.951V88.8706H112.451H114.951V55.2583H112.451ZM112.451 88.8706V91.3706H145.833V88.8706V86.3706H112.451V88.8706ZM145.833 88.8706L145.833 91.3706C146.662 91.3706 147.333 92.0424 147.333 92.8706H149.833H152.333C152.333 89.2807 149.423 86.3708 145.834 86.3706L145.833 88.8706ZM149.833 92.8706H147.333V112.392H149.833H152.333V92.8706H149.833ZM149.833 112.392L147.333 112.392C147.333 113.22 146.662 113.892 145.833 113.892L145.833 116.392L145.834 118.892C149.423 118.892 152.333 115.982 152.333 112.392L149.833 112.392ZM145.833 116.392V113.892H112.451V116.392V118.892H145.833V116.392ZM112.451 116.392H109.951V149.775H112.451H114.951V116.392H112.451ZM112.451 149.775L109.951 149.775C109.951 150.603 109.279 151.275 108.45 151.275L108.451 153.775L108.451 156.275C112.04 156.275 114.95 153.365 114.951 149.775L112.451 149.775ZM108.451 153.775V151.275H88.9291V153.775V156.275H108.451V153.775ZM88.9291 153.775V151.275C88.1009 151.275 87.4292 150.603 87.4291 149.775L84.9291 149.775L82.4291 149.775C82.4293 153.365 85.3392 156.275 88.9291 156.275V153.775ZM84.9291 149.775H87.4291V116.392H84.9291H82.4291V149.775H84.9291ZM84.9291 116.392V113.892H51.3168V116.392V118.892H84.9291V116.392ZM51.3168 116.392L51.3168 113.892C50.4887 113.892 49.8169 113.221 49.8168 112.392L47.3168 112.392L44.8168 112.392C44.8171 115.982 47.7269 118.892 51.3168 118.892L51.3168 116.392ZM47.3168 112.392H49.8168V92.8706H47.3168H44.8168V112.392H47.3168ZM47.3168 92.8706H49.8168C49.8168 92.0422 50.4884 91.3706 51.3168 91.3706V88.8706V86.3706C47.727 86.3706 44.8168 89.2808 44.8168 92.8706H47.3168ZM51.3168 88.8706V91.3706H84.9291V88.8706V86.3706H51.3168V88.8706ZM84.9291 88.8706H87.4291V55.2583H84.9291H82.4291V88.8706H84.9291ZM84.9291 55.2583L87.4291 55.2583C87.4291 54.4299 88.1007 53.7583 88.9291 53.7583V51.2583V48.7583C85.3393 48.7583 82.4291 51.6685 82.4291 55.2583L84.9291 55.2583ZM88.9291 51.2583V53.7583H108.451V51.2583V48.7583H88.9291V51.2583Z" fill="white"/>
<circle cx="98.6897" cy="102.631" r="8.02701" fill="#262626"/>
<rect x="61.0338" y="108.292" width="11.5511" height="8.66336" transform="rotate(-90 61.0338 108.292)" fill="#262626"/>
<path d="M53.8143 102.517L62.4777 93.7634V111.27L53.8143 102.517Z" fill="#262626"/>
<rect x="136.116" y="96.741" width="11.5511" height="8.66336" transform="rotate(90 136.116 96.741)" fill="#262626"/>
<path d="M143.336 102.516L134.672 111.27V93.7634L143.336 102.516Z" fill="#262626"/>
<rect x="104.351" y="140.78" width="11.5511" height="8.66336" transform="rotate(180 104.351 140.78)" fill="#262626"/>
<path d="M98.575 147.999L89.8219 139.336H107.328L98.575 147.999Z" fill="#262626"/>
<rect x="92.7994" y="64.2533" width="11.5511" height="8.66336" fill="#262626"/>
<path d="M98.575 57.0338L107.328 65.6972H89.8219L98.575 57.0338Z" fill="#262626"/>
</g>
<defs>
<filter id="filter0_d_3_108" x="0" y="0" width="571.118" height="196.428" filterUnits="userSpaceOnUse" color-interpolation-filters="sRGB">
<feFlood flood-opacity="0" result="BackgroundImageFix"/>
<feColorMatrix in="SourceAlpha" type="matrix" values="0 0 0 0 0 0 0 0 0 0 0 0 0 0 0 0 0 0 127 0" result="hardAlpha"/>
<feOffset dy="4"/>
<feGaussianBlur stdDeviation="2"/>
<feComposite in2="hardAlpha" operator="out"/>
<feColorMatrix type="matrix" values="0 0 0 0 0 0 0 0 0 0 0 0 0 0 0 0 0 0 0.25 0"/>
<feBlend mode="normal" in2="BackgroundImageFix" result="effect1_dropShadow_3_108"/>
<feBlend mode="normal" in="SourceGraphic" in2="effect1_dropShadow_3_108" result="shape"/>
</filter>
</defs>
</svg>
