<svg width="481" height="167" viewBox="0 0 481 167" fill="none" xmlns="http://www.w3.org/2000/svg">
<g filter="url(#filter0_d_3_108)">
<path d="M4.41652 16.772C4.41652 7.93541 11.58 0.771973 20.4165 0.771973H461C469.837 0.771973 477 7.93542 477 16.772V142.906C477 151.742 469.837 158.906 461 158.906H20.4165C11.58 158.906 4.41652 151.742 4.41652 142.906V16.772Z" fill="#F2F2F7"/>
<path d="M18.9576 36.1461C18.9576 31.3326 23.8386 27.4304 29.8596 27.4304H450.951C456.972 27.4304 461.853 31.3326 461.853 36.1461V137.466C461.853 142.28 456.972 146.182 450.951 146.182H29.8596C23.8386 146.182 18.9576 142.28 18.9576 137.466V36.1461Z" fill="#212121"/>
<rect x="203.144" y="93.4709" width="85.4286" height="33.9291" rx="5" fill="#D9D9D9"/>
<rect x="209.203" y="116.263" width="7.03959" height="30.9067" rx="3.5198" transform="rotate(-90 209.203 116.263)" fill="#212121"/>
<rect x="281.309" y="109.224" width="7.03959" height="30.9067" rx="3.5198" transform="rotate(90 281.309 109.224)" fill="#212121"/>
<rect x="203.144" y="49.8479" width="85.4286" height="16.3587" rx="5" fill="#848484"/>
<rect x="203.144" y="46.8184" width="85.4286" height="16.3587" rx="5" fill="#848484"/>
<rect x="203.144" y="71.6594" width="85.4286" height="16.3587" rx="5" fill="#848484"/>
<rect x="203.144" y="68.63" width="85.4286" height="16.3587" rx="5" fill="#848484"/>
<path d="M203.144 137.671C203.144 136.014 204.487 134.671 206.144 134.671H285.573C287.229 134.671 288.573 136.014 288.573 137.671V145.576H203.144V137.671Z" fill="#848484"/>
<path d="M288.573 35.942C288.573 37.5989 287.229 38.942 285.573 38.942H206.144C204.487 38.942 203.144 37.5989 203.144 35.942V28.0362H288.573V35.942Z" fill="#848484"/>
<rect x="389.148" y="93.4709" width="41.8055" height="44.229" rx="5" fill="#D9D9D9"/>
<circle cx="410.051" cy="115.585" r="16.6616" fill="#FF3B30"/>
<rect x="343.707" y="93.4709" width="41.8055" height="44.229" rx="5" fill="#D9D9D9"/>
<circle cx="364.61" cy="115.585" r="16.6616" fill="#FF3B30"/>
<path d="M91.4312 43.7892C93.6402 43.7894 95.4312 45.5802 95.4312 47.7892V75.3546H122.803C125.012 75.3546 126.803 77.1455 126.803 79.3546V94.4513C126.803 96.6602 125.012 98.4513 122.803 98.4513H95.4312V125.823C95.4312 128.032 93.6402 129.823 91.4312 129.823H76.3345C74.1254 129.823 72.3345 128.033 72.3345 125.823V98.4513H44.7691C42.5601 98.4513 40.7693 96.6602 40.7691 94.4513V79.3546C40.7691 77.1455 42.56 75.3546 44.7691 75.3546H72.3345V47.7892C72.3345 45.58 74.1254 43.7892 76.3345 43.7892H91.4312Z" fill="#141414"/>
<path d="M91.4312 43.7892L91.4315 41.2892H91.4312V43.7892ZM95.4312 75.3546H92.9312V77.8546H95.4312V75.3546ZM122.803 75.3546V77.8546V75.3546ZM126.803 79.3546H129.303H126.803ZM126.803 94.4513L129.303 94.4516V94.4513H126.803ZM122.803 98.4513V100.951V98.4513ZM95.4312 98.4513V95.9513H92.9312V98.4513H95.4312ZM91.4312 129.823V132.323H91.4315L91.4312 129.823ZM72.3345 98.4513H74.8345V95.9513H72.3345V98.4513ZM44.7691 98.4513V95.9513V98.4513ZM40.7691 94.4513H38.2691V94.4515L40.7691 94.4513ZM40.7691 79.3546H43.2691H40.7691ZM44.7691 75.3546V72.8546V75.3546ZM72.3345 75.3546V77.8546H74.8345V75.3546H72.3345ZM91.4312 43.7892L91.431 46.2892C92.2597 46.2893 92.9312 46.9611 92.9312 47.7892H95.4312H97.9312C97.9312 44.1992 95.0207 41.2895 91.4315 41.2892L91.4312 43.7892ZM95.4312 47.7892H92.9312V75.3546H95.4312H97.9312V47.7892H95.4312ZM95.4312 75.3546V77.8546H122.803V75.3546V72.8546H95.4312V75.3546ZM122.803 75.3546V77.8546C123.632 77.8546 124.303 78.5262 124.303 79.3546H126.803H129.303C129.303 75.7648 126.393 72.8546 122.803 72.8546V75.3546ZM126.803 79.3546H124.303V94.4513H126.803H129.303V79.3546H126.803ZM126.803 94.4513L124.303 94.451C124.303 95.2797 123.631 95.9513 122.803 95.9513V98.4513V100.951C126.393 100.951 129.303 98.0408 129.303 94.4516L126.803 94.4513ZM122.803 98.4513V95.9513H95.4312V98.4513V100.951H122.803V98.4513ZM95.4312 98.4513H92.9312V125.823H95.4312H97.9312V98.4513H95.4312ZM95.4312 125.823H92.9312C92.9312 126.651 92.2597 127.323 91.431 127.323L91.4312 129.823L91.4315 132.323C95.0207 132.323 97.9312 129.413 97.9312 125.823H95.4312ZM91.4312 129.823V127.323H76.3345V129.823V132.323H91.4312V129.823ZM76.3345 129.823V127.323C75.5061 127.323 74.8345 126.652 74.8345 125.823H72.3345H69.8345C69.8345 129.413 72.7447 132.323 76.3345 132.323V129.823ZM72.3345 125.823H74.8345V98.4513H72.3345H69.8345V125.823H72.3345ZM72.3345 98.4513V95.9513H44.7691V98.4513V100.951H72.3345V98.4513ZM44.7691 98.4513V95.9513C43.9411 95.9513 43.2692 95.2797 43.2691 94.451L40.7691 94.4513L38.2691 94.4515C38.2695 98.0408 41.1791 100.951 44.7691 100.951V98.4513ZM40.7691 94.4513H43.2691V79.3546H40.7691H38.2691V94.4513H40.7691ZM40.7691 79.3546H43.2691C43.2691 78.5262 43.9407 77.8546 44.7691 77.8546V75.3546V72.8546C41.1793 72.8546 38.2691 75.7648 38.2691 79.3546H40.7691ZM44.7691 75.3546V77.8546H72.3345V75.3546V72.8546H44.7691V75.3546ZM72.3345 75.3546H74.8345V47.7892H72.3345H69.8345V75.3546H72.3345ZM72.3345 47.7892H74.8345C74.8345 46.9608 75.5061 46.2892 76.3345 46.2892V43.7892V41.2892C72.7447 41.2892 69.8345 44.1993 69.8345 47.7892H72.3345ZM76.3345 43.7892V46.2892H91.4312V43.7892V41.2892H76.3345V43.7892Z" fill="white"/>
<circle cx="83.8826" cy="86.9026" r="6.73647" fill="#262626"/>
<ellipse cx="83.6901" cy="55.3374" rx="6.73647" ry="6.73648" fill="#262626"/>
<ellipse cx="83.6901" cy="118.468" rx="6.73647" ry="6.73647" fill="#262626"/>
<ellipse cx="114.87" cy="86.9026" rx="6.73648" ry="6.73647" fill="#262626"/>
<ellipse cx="52.8948" cy="86.9026" rx="6.73648" ry="6.73647" fill="#262626"/>
</g>
<defs>
<filter id="filter0_d_3_108" x="0.416519" y="0.771973" width="480.583" height="166.134" filterUnits="userSpaceOnUse" color-interpolation-filters="sRGB">
<feFlood flood-opacity="0" result="BackgroundImageFix"/>
<feColorMatrix in="SourceAlpha" type="matrix" values="0 0 0 0 0 0 0 0 0 0 0 0 0 0 0 0 0 0 127 0" result="hardAlpha"/>
<feOffset dy="4"/>
<feGaussianBlur stdDeviation="2"/>
<feComposite in2="hardAlpha" operator="out"/>
<feColorMatrix type="matrix" values="0 0 0 0 0 0 0 0 0 0 0 0 0 0 0 0 0 0 0.25 0"/>
<feBlend mode="normal" in2="BackgroundImageFix" result="effect1_dropShadow_3_108"/>
<feBlend mode="normal" in="SourceGraphic" in2="effect1_dropShadow_3_108" result="shape"/>
</filter>
</defs>
</svg>
