<svg width="670" height="448" viewBox="0 0 670 448" fill="none" xmlns="http://www.w3.org/2000/svg">
<path d="M0 327.462C0 318.625 7.16344 311.462 16 311.462H653.699C662.536 311.462 669.699 318.625 669.699 327.462V431.967C669.699 440.803 662.536 447.967 653.699 447.967H16C7.16345 447.967 0 440.803 0 431.967V327.462Z" fill="#2B2A2A"/>
<path d="M0 171.731C0 162.894 7.16344 155.731 16 155.731H653.699C662.536 155.731 669.699 162.894 669.699 171.731V276.236C669.699 285.072 662.536 292.236 653.699 292.236H16C7.16345 292.236 0 285.072 0 276.236V171.731Z" fill="#2B2A2A"/>
<path d="M0 16C0 7.16345 7.16344 0 16 0H653.699C662.536 0 669.699 7.16344 669.699 16V120.505C669.699 129.341 662.536 136.505 653.699 136.505H16C7.16345 136.505 0 129.341 0 120.505V16Z" fill="#2B2A2A"/>
</svg>
