<svg xmlns="http://www.w3.org/2000/svg"  viewBox="0 0 50 50" width="500px" height="500px" fill-rule="evenodd" clip-rule="evenodd" baseProfile="basic"><path fill="#191919" d="M14.001,45.001c-1.921-1.755-6-2.399-6-5c0-2,0.053-4.892-1-7	c-1.264-2.529-6-3-6-6c0-1.665,1-4,3-4c2.603,0,3.399,5,6,5c1.536,0,1.413-3,3-3c0.943,0,0.783,2,2,2c0.744,0,1-1.163,1-2	c0-1.052-1-1.913-1-3c0-2.401,4-4.067,4-6c0-2.687-0.46-5.744,1-8c0.691-1.067,2.084-1.264,3.259-1.981	c1.22-0.745,2.277-2.019,3.741-2.019c1.373,0,2.42,1,4,1c1.373,0,2.479-1,4-1c1.201,0,1.861,2,3,2c1.372,0,1.7-1,3-1	c1.463,0,2,2.299,2,4c0,0.74,1.055,1,2,1c1.368,0,1,2.277,1,4c0,2.233,3,3.761,3,6c0,2.332-1,6.668-1,9c0,2.768-0.231,4.989-1,6	c-0.999,1.313-4,1.335-4,3c0,0.879-0.277,2.233-1,3c-1.231,1.305-3,2-5,2c-1.489,0-2,2-4,2c-3.281,0-5-4-9-4c-1.411,0-5,1-5,3	c0,1.179,1.471,2.057,1,3c-0.471,0.943-2,1-3,1C15.001,48.001,15.045,45.954,14.001,45.001z M38.001,39.001l2-2v-3	c0-1.413,1.264-2.367,3-3c0.501-0.609,1-1.256,1-2c0-1.143-0.977-1.847-2-3l-2-2v-14l-2-1h-7c-1.443,1.644-2.689,3.583-3.704,5.555	c-1.099,2.133-2.439,4.172-4.061,6.093c-1.637,1.94-3.043,4.073-4.235,6.352l1,4l1,1l9.545,0.515	c1.163,0.063,2.455,1.321,2.455,2.485v2l1,2H38.001z"/><path fill="#191919" fill-rule="evenodd" d="M30.001,26.001l-2-2l3-4	l2,1v1c0.395,1.169,1.079,2.159,2,3C33.335,25.67,31.668,25.989,30.001,26.001z" clip-rule="evenodd"/></svg>