<svg width="621" height="419" viewBox="0 0 621 419" fill="none" xmlns="http://www.w3.org/2000/svg">
<g filter="url(#filter0_d_7_29)">
<path d="M20 285.592H601C609.56 285.592 616.5 292.532 616.5 301.092V394.041C616.5 402.601 609.56 409.541 601 409.541H20C11.4397 409.541 4.50018 402.601 4.5 394.041V301.092L4.50488 300.692C4.71724 292.317 11.5734 285.592 20 285.592Z" fill="black" stroke="#F2F2F2"/>
<path d="M4 301.092C4 292.256 11.1634 285.092 20 285.092H601C609.837 285.092 617 292.256 617 301.092V394.04C617 402.877 609.837 410.04 601 410.04H20C11.1634 410.04 4 402.877 4 394.04V301.092Z" fill="#2B2A2A"/>
<rect x="174.176" y="332.608" width="408.972" height="29.9171" fill="white"/>
<ellipse cx="77.1941" cy="347.126" rx="23.7881" ry="23.3177" fill="#34C759"/>
<path d="M4 158.546C4 149.71 11.1634 142.546 20 142.546H601C609.837 142.546 617 149.71 617 158.546V251.494C617 260.331 609.837 267.494 601 267.494H20C11.1634 267.494 4 260.331 4 251.494V158.546Z" fill="#2B2A2A"/>
<rect x="174.176" y="190.062" width="408.972" height="29.9171" fill="white"/>
<ellipse cx="77.1941" cy="204.58" rx="23.7881" ry="23.3177" fill="#FFD119"/>
<path d="M4 16C4 7.16343 11.1634 0 20 0H601C609.837 0 617 7.16344 617 16V108.948C617 117.784 609.837 124.948 601 124.948H20C11.1634 124.948 4 117.784 4 108.948V16Z" fill="#2B2A2A"/>
<rect x="174.176" y="47.5154" width="408.972" height="29.9171" fill="white"/>
<ellipse cx="77.1941" cy="62.034" rx="23.7881" ry="23.3177" fill="#FF3B30"/>
</g>
<defs>
<filter id="filter0_d_7_29" x="0" y="0" width="621" height="418.04" filterUnits="userSpaceOnUse" color-interpolation-filters="sRGB">
<feFlood flood-opacity="0" result="BackgroundImageFix"/>
<feColorMatrix in="SourceAlpha" type="matrix" values="0 0 0 0 0 0 0 0 0 0 0 0 0 0 0 0 0 0 127 0" result="hardAlpha"/>
<feOffset dy="4"/>
<feGaussianBlur stdDeviation="2"/>
<feComposite in2="hardAlpha" operator="out"/>
<feColorMatrix type="matrix" values="0 0 0 0 0 0 0 0 0 0 0 0 0 0 0 0 0 0 0.25 0"/>
<feBlend mode="normal" in2="BackgroundImageFix" result="effect1_dropShadow_7_29"/>
<feBlend mode="normal" in="SourceGraphic" in2="effect1_dropShadow_7_29" result="shape"/>
</filter>
</defs>
</svg>
