<?xml version="1.0" encoding="iso-8859-1"?>
<!-- Generator: Adobe Illustrator 24.0.2, SVG Export Plug-In . SVG Version: 6.00 Build 0)  -->
<svg version="1.1" id="Layer_1" xmlns="http://www.w3.org/2000/svg" xmlns:xlink="http://www.w3.org/1999/xlink" x="0px" y="0px"
	 viewBox="0 0 64 64" style="enable-background:new 0 0 64 64;" xml:space="preserve">
<g>
	<path d="M45,43c-0.553,0-1-0.447-1-1v-5c0-0.553,0.447-1,1-1s1,0.447,1,1v5C46,42.553,45.553,43,45,43z"/>
</g>
<g>
	<path d="M52,35c-0.553,0-1-0.447-1-1v-7c0-0.553,0.447-1,1-1s1,0.447,1,1v7C53,34.553,52.553,35,52,35z"/>
</g>
<g>
	<path d="M41.001,42c-0.348,0-0.685-0.181-0.869-0.504c-0.274-0.479-0.107-1.09,0.372-1.364l7-4c0.479-0.276,1.09-0.107,1.364,0.372
		s0.107,1.09-0.372,1.364l-7,4C41.34,41.958,41.169,42,41.001,42z"/>
</g>
<g>
	<path d="M32,62c-0.168,0-0.337-0.042-0.488-0.128l-25-14C6.195,47.695,6,47.362,6,47V16c0-0.354,0.188-0.684,0.494-0.862
		c0.307-0.18,0.686-0.185,0.994-0.01l25,14C32.805,29.305,33,29.638,33,30v31c0,0.354-0.188,0.684-0.494,0.862
		C32.35,61.954,32.175,62,32,62z M8,46.414l23,12.88V30.586L8,17.706V46.414z"/>
</g>
<g>
	<path d="M32,62c-0.175,0-0.35-0.046-0.506-0.138C31.188,61.684,31,61.354,31,61V30c0-0.362,0.195-0.695,0.512-0.872l25-14
		c0.31-0.175,0.688-0.17,0.994,0.01C57.812,15.316,58,15.646,58,16v31c0,0.362-0.195,0.695-0.512,0.872l-25,14
		C32.337,61.958,32.168,62,32,62z M33,30.586v28.708l23-12.88V17.706L33,30.586z M57,47h0.01H57z"/>
</g>
<g>
	<path d="M32,31c-0.168,0-0.337-0.043-0.488-0.128l-25-14c-0.326-0.182-0.523-0.53-0.511-0.903c0.012-0.373,0.229-0.709,0.566-0.87
		l25-12c0.273-0.131,0.592-0.131,0.865,0l25,12c0.337,0.161,0.555,0.497,0.566,0.87c0.013,0.373-0.185,0.722-0.511,0.903l-25,14
		C32.337,30.957,32.168,31,32,31z M9.169,16.068L32,28.854l22.831-12.785L32,5.109L9.169,16.068z"/>
</g>
<g>
	<path d="M32,41.935c-0.175,0-0.35-0.046-0.506-0.138l-5-2.935C26.188,38.683,26,38.354,26,38v-2.927l-2-1.261v0.709
		c0,0.364-0.198,0.699-0.517,0.876c-0.32,0.176-0.71,0.164-1.017-0.03L20,33.813v3.709c0,0.364-0.198,0.699-0.517,0.876
		c-0.32,0.176-0.709,0.164-1.017-0.03l-4-2.521C14.176,35.663,14,35.344,14,35v-5.927l-2-1.261v1.709
		c0,0.364-0.198,0.699-0.517,0.876c-0.321,0.176-0.709,0.164-1.017-0.03l-4-2.521C6.176,27.663,6,27.344,6,27V16
		c0-0.354,0.188-0.684,0.494-0.862c0.307-0.18,0.686-0.185,0.994-0.01l25,14C32.805,29.305,33,29.638,33,30v10.935
		c0,0.358-0.192,0.689-0.503,0.868C32.343,41.891,32.172,41.935,32,41.935z M28,37.428l3,1.761v-8.603L8,17.706v8.742l2,1.261V26
		c0-0.364,0.198-0.699,0.517-0.876c0.32-0.176,0.709-0.163,1.017,0.03l4,2.521C15.824,27.858,16,28.178,16,28.521v5.927l2,1.261V32
		c0-0.364,0.198-0.699,0.517-0.876c0.32-0.176,0.71-0.164,1.017,0.03L22,32.709V32c0-0.364,0.198-0.699,0.517-0.876
		c0.321-0.176,0.709-0.164,1.017,0.03l4,2.521C27.824,33.858,28,34.178,28,34.521V37.428z"/>
</g>
<g>
	<path d="M36,40.521c-0.166,0-0.332-0.041-0.483-0.124C35.198,40.221,35,39.886,35,39.521v-2.709l-2.467,1.555
		c-0.309,0.193-0.696,0.205-1.017,0.03C31.198,38.221,31,37.886,31,37.521V30c0-0.362,0.195-0.695,0.512-0.872l25-14
		c0.31-0.175,0.688-0.17,0.994,0.01C57.812,15.316,58,15.646,58,16v9.292c0,0.34-0.172,0.656-0.457,0.84l-5,3.229
		c-0.308,0.199-0.7,0.215-1.021,0.038C51.2,29.225,51,28.888,51,28.521v-0.709l-2,1.261V30c0,0.344-0.176,0.663-0.467,0.846
		l-4,2.521c-0.307,0.193-0.696,0.206-1.017,0.03C43.198,33.221,43,32.886,43,32.521v-1.709l-2,1.261V37
		c0,0.344-0.176,0.663-0.467,0.846l-4,2.521C36.371,40.47,36.186,40.521,36,40.521z M36,34c0.166,0,0.332,0.041,0.483,0.124
		C36.802,34.301,37,34.636,37,35v2.709l2-1.261v-4.927c0-0.344,0.176-0.663,0.467-0.846l4-2.521c0.306-0.194,0.695-0.206,1.017-0.03
		C44.802,28.301,45,28.636,45,29v1.709l2-1.261v-0.927c0-0.344,0.176-0.663,0.467-0.846l4-2.521c0.307-0.194,0.695-0.207,1.017-0.03
		C52.802,25.301,53,25.636,53,26v0.686l3-1.938v-7.041l-23,12.88v5.123l2.467-1.555C35.629,34.052,35.814,34,36,34z"/>
</g>
<g>
	<path d="M23,56c-0.553,0-1-0.447-1-1v-9c0-0.553,0.447-1,1-1s1,0.447,1,1v9C24,55.553,23.553,56,23,56z"/>
</g>
<g>
	<path d="M12,50c-0.553,0-1-0.447-1-1v-6c0-0.553,0.447-1,1-1s1,0.447,1,1v6C13,49.553,12.553,50,12,50z"/>
</g>
<g>
	<path d="M19,43c-0.553,0-1-0.447-1-1v-6c0-0.553,0.447-1,1-1s1,0.447,1,1v6C20,42.553,19.553,43,19,43z"/>
</g>
<g>
	<path d="M27.999,53c-0.168,0-0.339-0.042-0.495-0.132l-7-4c-0.479-0.274-0.646-0.885-0.372-1.364
		c0.273-0.479,0.884-0.649,1.364-0.372l7,4c0.479,0.274,0.646,0.885,0.372,1.364C28.684,52.819,28.347,53,27.999,53z"/>
</g>
<g>
	<path d="M26.001,14c-0.367,0-0.72-0.202-0.896-0.553c-0.247-0.494-0.047-1.095,0.447-1.342l8-4
		c0.494-0.245,1.094-0.047,1.342,0.447c0.247,0.494,0.047,1.095-0.447,1.342l-8,4C26.304,13.966,26.151,14,26.001,14z"/>
</g>
<g>
	<path d="M43.001,14c-0.369,0-0.724-0.204-0.897-0.557c-0.245-0.495-0.042-1.096,0.453-1.34l3.563-1.761
		c0.497-0.245,1.096-0.042,1.34,0.453c0.245,0.495,0.042,1.096-0.453,1.34l-3.563,1.761C43.301,13.967,43.149,14,43.001,14z"/>
</g>
<g>
	<path d="M30.001,21c-0.367,0-0.72-0.202-0.896-0.553c-0.247-0.494-0.047-1.095,0.447-1.342l8-4
		c0.494-0.246,1.095-0.047,1.342,0.447s0.047,1.095-0.447,1.342l-8,4C30.304,20.966,30.151,21,30.001,21z"/>
</g>
<g>
	<path d="M13.999,45c-0.168,0-0.339-0.042-0.495-0.132l-7-4c-0.479-0.274-0.646-0.885-0.372-1.364
		c0.273-0.479,0.884-0.648,1.364-0.372l7,4c0.479,0.274,0.646,0.885,0.372,1.364C14.684,44.819,14.347,45,13.999,45z"/>
</g>
<g>
	<path d="M10.999,37c-0.15,0-0.303-0.034-0.446-0.105l-4-2c-0.494-0.247-0.694-0.848-0.447-1.342
		c0.248-0.494,0.848-0.692,1.342-0.447l4,2c0.494,0.247,0.694,0.848,0.447,1.342C11.719,36.798,11.366,37,10.999,37z"/>
</g>
<g>
	<path d="M33.999,12c-0.15,0-0.303-0.034-0.446-0.105l-8-4c-0.494-0.247-0.694-0.848-0.447-1.342
		c0.248-0.494,0.847-0.693,1.342-0.447l8,4c0.494,0.247,0.694,0.848,0.447,1.342C34.719,11.798,34.366,12,33.999,12z"/>
</g>
<g>
	<path d="M37.999,22c-0.15,0-0.303-0.034-0.446-0.105l-8-4c-0.494-0.247-0.694-0.848-0.447-1.342s0.848-0.693,1.342-0.447l8,4
		c0.494,0.247,0.694,0.848,0.447,1.342C38.719,21.798,38.366,22,37.999,22z"/>
</g>
<g>
	<path d="M31.999,26c-0.166,0-0.334-0.041-0.489-0.129l-3.965-2.23c-0.481-0.271-0.652-0.88-0.381-1.361
		c0.271-0.481,0.879-0.654,1.361-0.381l3.965,2.23c0.481,0.271,0.652,0.88,0.381,1.361C32.688,25.816,32.349,26,31.999,26z"/>
</g>
<g>
	<path d="M24.776,21.938c-0.166,0-0.334-0.041-0.489-0.129l-8.777-4.938c-0.481-0.271-0.652-0.88-0.381-1.361
		c0.27-0.481,0.879-0.654,1.361-0.381l8.777,4.938c0.481,0.271,0.652,0.88,0.381,1.361C25.466,21.754,25.126,21.938,24.776,21.938z"
		/>
</g>
<g>
	<path d="M37,55.117c-0.553,0-1-0.447-1-1v-3c0-0.553,0.447-1,1-1s1,0.447,1,1v3C38,54.67,37.553,55.117,37,55.117z"/>
</g>
<g>
	<path d="M41,52.838c-0.553,0-1-0.447-1-1v-3c0-0.553,0.447-1,1-1s1,0.447,1,1v3C42,52.391,41.553,52.838,41,52.838z"/>
</g>
<g>
	<path d="M45,50.559c-0.553,0-1-0.447-1-1v-3c0-0.553,0.447-1,1-1s1,0.447,1,1v3C46,50.111,45.553,50.559,45,50.559z"/>
</g>
<g>
	<path d="M49,48.279c-0.553,0-1-0.447-1-1v-3c0-0.553,0.447-1,1-1s1,0.447,1,1v3C50,47.832,49.553,48.279,49,48.279z"/>
</g>
<g>
	<path d="M53,46c-0.553,0-1-0.447-1-1v-3c0-0.553,0.447-1,1-1s1,0.447,1,1v3C54,45.553,53.553,46,53,46z"/>
</g>
</svg>