<svg width="621" height="419" viewBox="0 0 621 419" fill="none" xmlns="http://www.w3.org/2000/svg">
<g filter="url(#filter0_d_15_130)">
<path d="M601 285.093C609.837 285.093 617 292.256 617 301.093V394.04C617 402.877 609.837 410.04 601 410.04H20C11.1634 410.04 4 402.877 4 394.04V301.093C4 292.256 11.1634 285.093 20 285.093H601ZM77.1943 323.809C64.0567 323.809 53.4065 334.248 53.4062 347.126C53.4062 360.004 64.0566 370.444 77.1943 370.444C90.332 370.444 100.982 360.004 100.982 347.126C100.982 334.248 90.3318 323.809 77.1943 323.809ZM174.176 362.525H583.147V332.607H174.176V362.525Z" fill="#2B2A2A"/>
<path d="M601 142.546C609.837 142.546 617 149.71 617 158.546V251.494C617 260.331 609.836 267.494 601 267.494H20C11.1636 267.494 4.00019 260.331 4 251.494V158.546C4 149.71 11.1634 142.546 20 142.546H601ZM77.1943 181.262C64.0566 181.262 53.4062 191.702 53.4062 204.58C53.4064 217.458 64.0566 227.898 77.1943 227.898C90.3319 227.898 100.982 217.458 100.982 204.58C100.982 191.702 90.332 181.262 77.1943 181.262ZM174.176 219.979H583.147V190.062H174.176V219.979Z" fill="#2B2A2A"/>
<path d="M601 0C609.837 0 617 7.16344 617 16V108.948C617 117.785 609.836 124.948 601 124.948H20C11.1636 124.948 4.00019 117.785 4 108.948V16C4 7.16344 11.1634 8.0532e-08 20 0H601ZM77.1943 38.7158C64.0566 38.7158 53.4062 49.1561 53.4062 62.0342C53.4063 74.9121 64.0566 85.3516 77.1943 85.3516C90.3319 85.3514 100.982 74.912 100.982 62.0342C100.982 49.1563 90.332 38.716 77.1943 38.7158ZM174.176 77.4326H583.147V47.5156H174.176V77.4326Z" fill="#2B2A2A"/>
</g>
<defs>
<filter id="filter0_d_15_130" x="0" y="0" width="621" height="418.04" filterUnits="userSpaceOnUse" color-interpolation-filters="sRGB">
<feFlood flood-opacity="0" result="BackgroundImageFix"/>
<feColorMatrix in="SourceAlpha" type="matrix" values="0 0 0 0 0 0 0 0 0 0 0 0 0 0 0 0 0 0 127 0" result="hardAlpha"/>
<feOffset dy="4"/>
<feGaussianBlur stdDeviation="2"/>
<feComposite in2="hardAlpha" operator="out"/>
<feColorMatrix type="matrix" values="0 0 0 0 0 0 0 0 0 0 0 0 0 0 0 0 0 0 0.25 0"/>
<feBlend mode="normal" in2="BackgroundImageFix" result="effect1_dropShadow_15_130"/>
<feBlend mode="normal" in="SourceGraphic" in2="effect1_dropShadow_15_130" result="shape"/>
</filter>
</defs>
</svg>
