<svg width="701" height="504" viewBox="0 0 701 504" fill="none" xmlns="http://www.w3.org/2000/svg">
<g filter="url(#filter0_d_5_61)">
<path d="M4 327.462C4 318.625 11.1634 311.462 20 311.462H657.699C666.536 311.462 673.699 318.625 673.699 327.462V431.967C673.699 440.803 666.536 447.967 657.699 447.967H20C11.1635 447.967 4 440.803 4 431.967V327.462Z" fill="#2B2A2A"/>
<path d="M4 171.731C4 162.894 11.1634 155.731 20 155.731H657.699C666.536 155.731 673.699 162.894 673.699 171.731V276.236C673.699 285.072 666.536 292.236 657.699 292.236H20C11.1635 292.236 4 285.072 4 276.236V171.731Z" fill="#2B2A2A"/>
<path d="M4 16C4 7.16345 11.1634 0 20 0H657.699C666.536 0 673.699 7.16344 673.699 16V120.505C673.699 129.341 666.536 136.505 657.699 136.505H20C11.1635 136.505 4 129.341 4 120.505V16Z" fill="#2B2A2A"/>
<rect x="189.917" y="363.372" width="446.799" height="32.6843" fill="white"/>
<rect x="189.917" y="207.641" width="446.799" height="32.6843" fill="white"/>
<rect x="189.917" y="51.9103" width="446.799" height="32.6843" fill="white"/>
<ellipse cx="83.9641" cy="379.234" rx="25.9883" ry="25.4745" fill="#34C759"/>
<ellipse cx="83.9641" cy="223.503" rx="25.9883" ry="25.4745" fill="#FFD119"/>
<ellipse cx="83.9641" cy="67.7719" rx="25.9883" ry="25.4745" fill="#FF3B30"/>
</g>
<g filter="url(#filter1_d_5_61)">
<path d="M133.882 323.426C133.882 314.59 141.045 307.426 149.882 307.426H681C689.837 307.426 697 314.59 697 323.426V479.854C697 488.691 689.837 495.854 681 495.854H149.882C141.045 495.854 133.882 488.691 133.882 479.854V323.426Z" fill="#F2F2F7"/>
<path d="M151.208 349.577C151.208 343.841 157.024 339.192 164.199 339.192H665.961C673.135 339.192 678.951 343.841 678.951 349.577V470.308C678.951 476.044 673.135 480.693 665.961 480.693H164.199C157.024 480.693 151.208 476.044 151.208 470.308V349.577Z" fill="#212121"/>
<rect x="370.68" y="417.884" width="101.794" height="40.429" rx="5" fill="#D9D9D9"/>
<rect x="377.9" y="445.043" width="8.3882" height="36.8277" rx="4.1941" transform="rotate(-90 377.9 445.043)" fill="#212121"/>
<rect x="463.82" y="436.655" width="8.3882" height="36.8277" rx="4.1941" transform="rotate(90 463.82 436.655)" fill="#212121"/>
<rect x="370.68" y="365.904" width="101.794" height="19.4926" rx="5" fill="#848484"/>
<rect x="370.68" y="362.294" width="101.794" height="19.4926" rx="5" fill="#848484"/>
<rect x="370.68" y="391.894" width="101.794" height="19.4926" rx="5" fill="#848484"/>
<rect x="370.68" y="388.284" width="101.794" height="19.4926" rx="5" fill="#848484"/>
<path d="M370.68 469.976C370.68 468.32 372.023 466.976 373.68 466.976H469.475C471.131 466.976 472.475 468.32 472.475 469.976V479.971H370.68V469.976Z" fill="#848484"/>
<path d="M472.475 349.909C472.475 351.566 471.131 352.909 469.475 352.909H373.68C372.023 352.909 370.68 351.566 370.68 349.909V339.914H472.475V349.909Z" fill="#848484"/>
<rect x="592.318" y="417.884" width="49.8143" height="52.7021" rx="5" fill="#D9D9D9"/>
<circle cx="617.225" cy="444.235" r="19.8535" fill="#FF3B30"/>
<rect x="538.172" y="417.884" width="49.8143" height="52.7021" rx="5" fill="#D9D9D9"/>
<circle cx="563.079" cy="444.235" r="19.8535" fill="#FF3B30"/>
<path d="M238.332 358.684C240.541 358.685 242.332 360.475 242.332 362.684V396.297H275.715C277.924 396.297 279.715 398.088 279.715 400.297V419.818C279.715 422.027 277.924 423.818 275.715 423.818H242.332V457.201C242.332 459.41 240.541 461.201 238.332 461.201H218.811C216.602 461.201 214.811 459.41 214.811 457.201V423.818H181.198C178.989 423.818 177.199 422.027 177.198 419.818V400.297C177.198 398.088 178.989 396.297 181.198 396.297H214.811V362.684C214.811 360.475 216.602 358.684 218.811 358.684H238.332Z" fill="#141414"/>
<path d="M238.332 358.684L238.332 356.184H238.332V358.684ZM242.332 396.297H239.832V398.797H242.332V396.297ZM275.715 396.297L275.715 393.797H275.715V396.297ZM279.715 400.297H282.215V400.297H279.715ZM279.715 419.818L282.215 419.818V419.818H279.715ZM275.715 423.818V426.318H275.715L275.715 423.818ZM242.332 423.818V421.318H239.832V423.818H242.332ZM242.332 457.201L244.832 457.201V457.201H242.332ZM238.332 461.201V463.701H238.332L238.332 461.201ZM214.811 457.201H212.311V457.201L214.811 457.201ZM214.811 423.818H217.311V421.318H214.811V423.818ZM181.198 423.818L181.198 426.318H181.198V423.818ZM177.198 419.818H174.698V419.818L177.198 419.818ZM177.198 400.297H179.698V400.297H177.198ZM181.198 396.297V393.797V393.797V396.297ZM214.811 396.297V398.797H217.311V396.297H214.811ZM214.811 362.684L212.311 362.684V362.684H214.811ZM238.332 358.684L238.332 361.184C239.161 361.185 239.832 361.856 239.832 362.684H242.332H244.832C244.832 359.095 241.922 356.185 238.332 356.184L238.332 358.684ZM242.332 362.684H239.832V396.297H242.332H244.832V362.684H242.332ZM242.332 396.297V398.797H275.715V396.297V393.797H242.332V396.297ZM275.715 396.297L275.715 398.797C276.543 398.797 277.215 399.469 277.215 400.297H279.715H282.215C282.215 396.707 279.305 393.797 275.715 393.797L275.715 396.297ZM279.715 400.297H277.215V419.818H279.715H282.215V400.297H279.715ZM279.715 419.818L277.215 419.818C277.215 420.646 276.543 421.318 275.715 421.318L275.715 423.818L275.715 426.318C279.305 426.318 282.215 423.408 282.215 419.818L279.715 419.818ZM275.715 423.818V421.318H242.332V423.818V426.318H275.715V423.818ZM242.332 423.818H239.832V457.201H242.332H244.832V423.818H242.332ZM242.332 457.201L239.832 457.201C239.832 458.029 239.16 458.701 238.332 458.701L238.332 461.201L238.332 463.701C241.922 463.701 244.832 460.791 244.832 457.201L242.332 457.201ZM238.332 461.201V458.701H218.811V461.201V463.701H238.332V461.201ZM218.811 461.201V458.701C217.982 458.701 217.311 458.029 217.311 457.201L214.811 457.201L212.311 457.201C212.311 460.791 215.221 463.701 218.811 463.701V461.201ZM214.811 457.201H217.311V423.818H214.811H212.311V457.201H214.811ZM214.811 423.818V421.318H181.198V423.818V426.318H214.811V423.818ZM181.198 423.818L181.198 421.318C180.37 421.318 179.698 420.647 179.698 419.818L177.198 419.818L174.698 419.818C174.699 423.408 177.608 426.318 181.198 426.318L181.198 423.818ZM177.198 419.818H179.698V400.297H177.198H174.698V419.818H177.198ZM177.198 400.297H179.698C179.698 399.468 180.37 398.797 181.198 398.797V396.297V393.797C177.609 393.797 174.698 396.707 174.698 400.297H177.198ZM181.198 396.297V398.797H214.811V396.297V393.797H181.198V396.297ZM214.811 396.297H217.311V362.684H214.811H212.311V396.297H214.811ZM214.811 362.684L217.311 362.684C217.311 361.856 217.982 361.184 218.811 361.184V358.684V356.184C215.221 356.184 212.311 359.095 212.311 362.684L214.811 362.684ZM218.811 358.684V361.184H238.332V358.684V356.184H218.811V358.684Z" fill="white"/>
<circle cx="228.571" cy="410.057" r="8.02701" fill="#262626"/>
<rect x="190.915" y="415.718" width="11.5511" height="8.66336" transform="rotate(-90 190.915 415.718)" fill="#262626"/>
<path d="M183.696 409.943L192.359 401.19V418.696L183.696 409.943Z" fill="#262626"/>
<rect x="265.998" y="404.167" width="11.5511" height="8.66336" transform="rotate(90 265.998 404.167)" fill="#262626"/>
<path d="M273.217 409.943L264.554 418.696V401.19L273.217 409.943Z" fill="#262626"/>
<rect x="234.232" y="448.206" width="11.5511" height="8.66336" transform="rotate(180 234.232 448.206)" fill="#262626"/>
<path d="M228.457 455.425L219.704 446.762H237.21L228.457 455.425Z" fill="#262626"/>
<rect x="222.681" y="371.679" width="11.5511" height="8.66336" fill="#262626"/>
<path d="M228.457 364.46L237.21 373.123H219.704L228.457 364.46Z" fill="#262626"/>
</g>
<defs>
<filter id="filter0_d_5_61" x="0" y="0" width="677.699" height="455.967" filterUnits="userSpaceOnUse" color-interpolation-filters="sRGB">
<feFlood flood-opacity="0" result="BackgroundImageFix"/>
<feColorMatrix in="SourceAlpha" type="matrix" values="0 0 0 0 0 0 0 0 0 0 0 0 0 0 0 0 0 0 127 0" result="hardAlpha"/>
<feOffset dy="4"/>
<feGaussianBlur stdDeviation="2"/>
<feComposite in2="hardAlpha" operator="out"/>
<feColorMatrix type="matrix" values="0 0 0 0 0 0 0 0 0 0 0 0 0 0 0 0 0 0 0.25 0"/>
<feBlend mode="normal" in2="BackgroundImageFix" result="effect1_dropShadow_5_61"/>
<feBlend mode="normal" in="SourceGraphic" in2="effect1_dropShadow_5_61" result="shape"/>
</filter>
<filter id="filter1_d_5_61" x="129.882" y="307.426" width="571.118" height="196.428" filterUnits="userSpaceOnUse" color-interpolation-filters="sRGB">
<feFlood flood-opacity="0" result="BackgroundImageFix"/>
<feColorMatrix in="SourceAlpha" type="matrix" values="0 0 0 0 0 0 0 0 0 0 0 0 0 0 0 0 0 0 127 0" result="hardAlpha"/>
<feOffset dy="4"/>
<feGaussianBlur stdDeviation="2"/>
<feComposite in2="hardAlpha" operator="out"/>
<feColorMatrix type="matrix" values="0 0 0 0 0 0 0 0 0 0 0 0 0 0 0 0 0 0 0.25 0"/>
<feBlend mode="normal" in2="BackgroundImageFix" result="effect1_dropShadow_5_61"/>
<feBlend mode="normal" in="SourceGraphic" in2="effect1_dropShadow_5_61" result="shape"/>
</filter>
</defs>
</svg>
