<?xml version="1.0" encoding="UTF-8" standalone="no"?>
<!-- Generator: Adobe Illustrator 24.3.0, SVG Export Plug-In . SVG Version: 6.00 Build 0)  -->

<svg
   version="1.1"
   id="Layer_1"
   x="0px"
   y="0px"
   viewBox="0 0 384 384"
   style="enable-background:new 0 0 384 384;"
   xml:space="preserve"
   sodipodi:docname="garry-s-mod.svg"
   inkscape:version="1.4 (e7c3feb1, 2024-10-09)"
   xmlns:inkscape="http://www.inkscape.org/namespaces/inkscape"
   xmlns:sodipodi="http://sodipodi.sourceforge.net/DTD/sodipodi-0.dtd"
   xmlns="http://www.w3.org/2000/svg"
   xmlns:svg="http://www.w3.org/2000/svg"><defs
   id="defs3" /><sodipodi:namedview
   id="namedview3"
   pagecolor="#505050"
   bordercolor="#eeeeee"
   borderopacity="1"
   inkscape:showpageshadow="0"
   inkscape:pageopacity="0"
   inkscape:pagecheckerboard="0"
   inkscape:deskcolor="#505050"
   inkscape:zoom="2.6276042"
   inkscape:cx="191.80971"
   inkscape:cy="191.80971"
   inkscape:window-width="2560"
   inkscape:window-height="1381"
   inkscape:window-x="0"
   inkscape:window-y="238"
   inkscape:window-maximized="0"
   inkscape:current-layer="Layer_1" />
<style
   type="text/css"
   id="style1">
	.st0{fill:#0081FF;}
	.st1{fill:#FFFFFF;}
</style>

<path
   id="path2"
   style="display:inline"
   class="st1"
   d="M 180.34766 47.078125 C 175.58266 47.128125 170.82961 47.614844 166.09961 48.589844 C 149.17961 52.079844 135.00008 60.399453 123.33008 73.189453 C 113.26008 84.219453 106.62 97.110703 102.25 111.2207 C 96.93 128.4007 96.069922 146.04031 97.919922 163.82031 C 99.199922 176.12031 101.71961 188.17086 106.59961 199.63086 C 111.37961 210.87086 118.08945 220.75992 127.43945 228.66992 C 138.54945 238.05992 151.30031 243.94063 165.82031 245.89062 C 177.45031 247.46062 189.05008 247.7893 200.58008 245.2793 C 210.15008 243.1993 219.14961 239.62906 226.34961 232.78906 C 229.88961 229.41906 232.73031 225.31016 235.57031 221.91016 C 235.57031 221.79016 235.56984 222.35063 235.58984 222.89062 C 235.51984 233.72063 235.92 244.59086 235.25 255.38086 C 234.35 269.69086 226.44922 279.78047 213.94922 286.23047 C 200.04922 293.40047 185.42094 294.24094 170.46094 290.21094 C 164.02094 288.48094 158.34977 285.23031 153.75977 280.32031 C 147.60977 273.74031 145.15023 265.74086 144.99023 256.88086 C 144.99023 256.72086 145 255.75977 145 255.75977 C 145 255.75977 144.27961 255.75 144.09961 255.75 C 128.85961 255.7 113.62086 255.7093 98.380859 255.7793 L 97.119141 255.7793 C 97.119141 255.7793 97.179453 256.87984 97.189453 257.08984 C 97.319453 260.50984 97.430859 263.95961 97.880859 267.34961 C 101.23086 292.90961 114.72922 311.64086 136.94922 324.13086 C 151.70922 332.42086 167.88922 336.05953 184.69922 336.76953 C 200.07922 337.41953 215.1793 335.64977 229.7793 330.50977 C 244.7793 325.22977 257.8793 317.06016 268.0293 304.66016 C 281.0793 288.71016 286.82914 270.07094 286.86914 249.71094 C 287.00914 185.32094 286.91992 120.91953 286.91992 56.519531 C 286.91992 54.199531 286.92969 52.240234 286.92969 52.240234 C 286.92969 52.240234 252.24094 52.2 236.96094 52.25 L 235.60938 52.25 C 235.60938 52.25 235.59938 63.599766 235.60938 68.759766 L 235.60938 75.589844 C 235.60938 75.589844 234.66992 74.189141 234.41992 73.869141 C 224.79992 59.679141 211.66992 50.959453 194.66992 48.189453 C 189.88992 47.414453 185.11266 47.028125 180.34766 47.078125 z M 195.97656 91.898438 C 201.87734 92.101367 207.64219 93.360547 213.21094 96.060547 C 222.11094 100.38055 227.59922 107.75922 231.19922 116.69922 C 234.72922 125.44922 236.53016 134.63977 236.66016 144.00977 C 236.78016 152.38977 236.75094 160.90039 235.46094 169.15039 C 232.87094 185.72039 221.37047 201.23078 203.73047 205.55078 C 187.64047 209.49078 171.03922 203.32023 161.44922 189.74023 C 154.70922 180.21023 151.59906 169.53055 150.78906 158.06055 C 150.60906 155.33055 150.76953 152.57031 150.76953 149.82031 C 150.46953 138.03031 151.70031 126.4507 156.32031 115.4707 C 161.75031 102.5807 171.2307 94.729844 185.2207 92.589844 C 188.84695 92.034844 192.43609 91.77668 195.97656 91.898438 z " />

</svg>
